<?xml version="1.0" encoding="UTF-8" standalone="no"?>
<!-- Created with Inkscape (http://www.inkscape.org/) -->

<svg
   xmlns:dc="http://purl.org/dc/elements/1.1/"
   xmlns:cc="http://creativecommons.org/ns#"
   xmlns:rdf="http://www.w3.org/1999/02/22-rdf-syntax-ns#"
   xmlns:svg="http://www.w3.org/2000/svg"
   xmlns="http://www.w3.org/2000/svg"
   xmlns:sodipodi="http://sodipodi.sourceforge.net/DTD/sodipodi-0.dtd"
   xmlns:inkscape="http://www.inkscape.org/namespaces/inkscape"
   width="239.72404mm"
   height="96.820793mm"
   viewBox="0 0 849.4159 343.0658"
   id="svg2"
   version="1.1"
   inkscape:version="0.91 r13725"
   sodipodi:docname="mtfist-hires.svg">
  <defs
     id="defs4" />
  <sodipodi:namedview
     id="base"
     pagecolor="#ffffff"
     bordercolor="#666666"
     borderopacity="1.0"
     inkscape:pageopacity="0.0"
     inkscape:pageshadow="2"
     inkscape:zoom="2.8"
     inkscape:cx="497.0216"
     inkscape:cy="176.19115"
     inkscape:document-units="px"
     inkscape:current-layer="layer1"
     showgrid="false"
     inkscape:window-width="3710"
     inkscape:window-height="2112"
     inkscape:window-x="130"
     inkscape:window-y="1128"
     inkscape:window-maximized="1"
     fit-margin-top="2"
     fit-margin-left="5"
     fit-margin-right="5"
     fit-margin-bottom="2" />
  <metadata
     id="metadata7">
    <rdf:RDF>
      <cc:Work
         rdf:about="">
        <dc:format>image/svg+xml</dc:format>
        <dc:type
           rdf:resource="http://purl.org/dc/dcmitype/StillImage" />
        <dc:title></dc:title>
      </cc:Work>
    </rdf:RDF>
  </metadata>
  <g
     inkscape:label="Layer 1"
     inkscape:groupmode="layer"
     id="layer1"
     transform="translate(-119.34775,-497.94156)">
    <g
       transform="matrix(0.83493845,0,0,-0.91336543,501.56011,1030.9005)"
       inkscape:label="ink_ext_XXXXXX"
       id="g4163">
      <g
         transform="matrix(0.1,0,0,0.1,-120.98527,215.66368)"
         id="g4165">
        <path
           inkscape:connector-curvature="0"
           id="path4167"
           style="fill:#000000;fill-opacity:1;fill-rule:nonzero;stroke:none"
           d="m 3002.47,2653.3 -280.95,-722.91 c -8.88,-22.85 -26.42,-41.71 -48.13,-51.73 l -42.36,-19.57 c -21.51,-9.94 -45.19,-10.82 -66.7,-2.45 l -173.62,67.47 c -21.52,8.37 -38.41,25.02 -47.57,46.87 l -18.02,43.02 0,0.01 c -9.23,22.05 -9.44,47.81 -0.55,70.67 l 280.95,722.89 c 8.88,22.86 26.42,41.72 48.12,51.75 l 42.34,19.55 c 11.74,5.43 24.13,8.15 36.45,8.15 10.27,0 20.51,-1.89 30.28,-5.7 l 173.63,-67.48 c 21.5,-8.34 38.39,-24.99 47.55,-46.86 l 18.02,-43.02 c 9.24,-22.05 9.44,-47.81 0.56,-70.66 z M 2529.11,1360.61 c 0,0 -528.02,-192.23 -587.65,-218.35 38.99,-6.37 509.79,10.14 509.79,10.14 26.02,-235.451 129.47,-887.189 158.84,-1070.6695 l -1862.094,0 119.32,1061.2895 c 0,0 298.134,-0.73 413.354,-0.73 -70.2,28.75 -517.658,196.87 -517.658,196.87 -405.985,460.74 -670.6995,827.66 -680.969,943.28 29.102,76.72 264.82,695.8 372.832,904.1 108.344,56.2 303.879,123.6 372.305,103.78 24.398,-7.43 578.94,-195.59 731.94,-248.19 -59.89,-151.59 -184.39,-244.39 -370.66,-276.08 -155.74,-26.51 -297.937,1.38 -299.319,1.63 -0.313,0.07 -0.637,0.01 -0.953,0.07 -52.997,56.64 -67.981,138.32 -48.051,214.58 -55.778,-80.16 -62.59,-179.8 -25.129,-266.62 L 712.281,2602.58 c -6.582,-7.24 -10.343,-16.61 -10.601,-26.39 l -6.289,-238.64 c -19.532,-8.16 -43.946,-18.55 -68.18,-29.33 -26.789,-11.85 -53.359,-24.07 -73.148,-33.43 -19.7,-9.53 -32.836,-15.87 -32.836,-15.87 0,0 14.5,1.09 36.257,2.75 21.739,1.47 50.719,3.1 79.641,4.32 48.168,2.13 95.98,2.77 110.73,2.93 l 607.895,-276.41 c 0,0 206.04,-487.74 226.72,-535.91 -9.73,69.31 -155.92,600.96 -155.92,600.96 -2.34,11.47 -629.683,312.98 -629.683,312.98 l 1.649,188.33 97.734,124.73 c 49.383,-7.47 170.3,-20.8 303.54,1.47 46.16,7.72 89.17,19.12 129.16,33.79 -15.28,-41.49 -30.9,-84.5 -47.26,-130.29 l -1.02,-3.25 c -10.29,-38.75 -8.46,-79.85 5.18,-115.77 l 17.18,-45.19 c 16.77,-44.12 50.61,-78.85 92.85,-95.27 l 173.63,-67.48 c 18.22,-7.07 37.6,-10.59 57.14,-10.59 25.72,0 51.71,6.1 75.69,18.15 l 43.18,21.74 c 0.92,0.46 1.76,1.03 2.68,1.5 -0.68,-24.38 3.38,-48.67 12.5,-71.5 l 17.59,-44.12 c 17.16,-43.01 51.1,-77.05 93.11,-93.38 l 173.62,-67.48 c 18.65,-7.24 38.49,-10.84 58.42,-10.84 24.98,0 50.12,5.65 73.31,16.85 l 42.76,20.65 c 5.81,2.8 11.39,5.98 16.83,9.37 -0.3,-23.68 4.08,-47.28 13.39,-69.52 l 18.03,-43.02 c 17.54,-41.9 51.56,-75.23 93.33,-91.48 l 173.63,-67.48 c 19.09,-7.42 39.39,-11.11 59.75,-11.11 24.2,0 48.46,5.21 70.84,15.55 l 42.36,19.56 c 25.15,11.62 46.77,28.89 63.66,50.27 0.02,-40.6 0.04,-80.93 0.04,-96.98 0,-81.32 -136.53,-248.44 -242.26,-397.14 z M 1142.51,3434.7 c 9.42,24.24 27.63,44.32 49.96,55.1 l 42.75,20.65 c 21.69,10.45 45.36,11.69 66.59,3.42 l 173.62,-67.49 c 21.27,-8.25 37.89,-25.13 46.81,-47.48 l 17.58,-44.1 c 9.2,-23.04 9.06,-50.14 -0.35,-74.38 l -49.15,-126.46 c -128.73,43.83 -286.46,97.33 -403.68,136.96 l 55.87,143.78 z m 521.54,-84.89 c 9.95,25.6 28.81,46.9 51.75,58.45 l 43.15,21.73 c 21.87,10.98 45.48,12.55 66.49,4.37 l 173.63,-67.47 c 21.01,-8.17 37.37,-25.26 46.06,-48.13 l 17.19,-45.18 c 9.11,-24.01 8.64,-52.45 -1.32,-78.04 l -300.48,-773.18 c -9.95,-25.61 -28.81,-46.91 -51.74,-58.44 l -43.18,-21.74 c -21.86,-10.98 -45.47,-12.56 -66.48,-4.38 l -173.62,67.47 c -21.02,8.17 -37.38,25.26 -46.06,48.12 l -17.19,45.19 c -7.43,19.58 -8.49,42.33 -2.98,64.22 26.82,74.99 51.74,143 76.15,207.83 103.59,64.82 176.59,160.62 214.82,284.62 6.39,20.7 -4.5,42.79 -24.8,50.34 -4.42,1.65 -23.61,8.28 -52.68,18.25 l 91.29,225.97 z m 513.63,-221.04 42.76,20.66 c 21.66,10.45 45.34,11.68 66.58,3.41 l 173.63,-67.48 c 21.26,-8.26 37.88,-25.13 46.81,-47.48 l 17.58,-44.1 c 9.19,-23.05 9.06,-50.15 -0.36,-74.39 l -290.75,-748.11 c -9.41,-24.24 -27.63,-44.31 -49.95,-55.09 l -42.78,-20.66 c -21.67,-10.45 -45.31,-11.68 -66.56,-3.41 L 1901,2159.59 c -21.25,8.26 -37.87,25.14 -46.79,47.48 l -17.6,44.12 c -9.19,23.02 -9.05,50.12 0.37,74.37 l 290.74,748.11 c 9.43,24.24 27.63,44.32 49.96,55.1 z m 899.62,-373.22 -18.03,43.02 c -17.56,41.89 -51.57,75.22 -93.32,91.45 l -173.63,67.49 c -41.74,16.22 -89.35,14.62 -130.6,-4.43 l -42.36,-19.57 c -2.75,-1.28 -5.36,-2.79 -8.04,-4.2 4.99,32.04 1.65,64.64 -10.36,94.75 l -17.6,44.12 c -17.17,43.01 -51.1,77.04 -93.09,93.36 l -173.65,67.49 c -41.99,16.31 -90.02,14.13 -131.71,-6.01 l -37.07,-17.91 c 5.54,33.02 2.62,66.59 -9.13,97.52 l -17.17,45.16 c -16.77,44.14 -50.62,78.85 -92.86,95.29 l -173.62,67.47 c -42.23,16.41 -90.64,13.66 -132.84,-7.56 l -43.16,-21.73 c -30.54,-15.37 -56.14,-39.14 -74.41,-68.37 l -6.49,16.29 c -17.17,43.02 -51.1,77.05 -93.11,93.39 l -173.64,67.48 c -42,16.31 -90,14.13 -131.72,-6 l -42.76,-20.65 c -41.35,-19.97 -73.53,-55.17 -90.6,-99.1 l -57.79,-148.69 c -88.743,29.99 -152.638,51.48 -158.399,53.15 -114.645,33.27 -366.305,-73.46 -445.024,-116.08 -7.031,-3.81 -12.804,-9.61 -16.566,-16.67 C 274.586,3022.88 13.6914,2332.81 2.64063,2303.54 0.886719,2298.92 0,2294.03 0,2289.1 c 0,-32.26 0,-130.39 302.742,-523.16 158.485,-205.6 337.156,-410.83 406.613,-489.51 5.004,-5.66 11.461,-9.82 18.672,-12.03 L 935.098,1202.58 790.57,1201.91 652.289,0 2718.03,0 l -189.45,1210.29 -165.09,7.7 213.39,71.77 c 17.04,5.22 276.22,356.77 276.22,467.99 0,25.9 -0.04,206.06 -0.1,285.32 l 225.66,580.62 c 16.71,43.03 16.23,89.85 -1.36,131.86" />
      </g>
    </g>
    <text
       xml:space="preserve"
       style="font-style:normal;font-weight:normal;font-size:396.87167358px;line-height:125%;font-family:sans-serif;letter-spacing:0px;word-spacing:0px;fill:#000000;fill-opacity:1;stroke:none;stroke-width:1px;stroke-linecap:butt;stroke-linejoin:miter;stroke-opacity:1"
       x="161.00168"
       y="689.39746"
       id="text4191"
       sodipodi:linespacing="125%"
       transform="scale(0.82952348,1.2055114)"><tspan
         sodipodi:role="line"
         id="tspan4193"
         x="161.00168"
         y="689.39746"
         style="font-style:normal;font-variant:normal;font-weight:normal;font-stretch:normal;font-family:FreeSerif;-inkscape-font-specification:FreeSerif">M</tspan></text>
    <text
       xml:space="preserve"
       style="font-style:normal;font-weight:normal;font-size:485.67474365px;line-height:125%;font-family:sans-serif;letter-spacing:0px;word-spacing:0px;fill:#000000;fill-opacity:1;stroke:none;stroke-width:1px;stroke-linecap:butt;stroke-linejoin:miter;stroke-opacity:1"
       x="649.83319"
       y="841.33514"
       id="text4195"
       sodipodi:linespacing="125%"
       transform="scale(1.0151357,0.98508997)"><tspan
         sodipodi:role="line"
         id="tspan4197"
         x="649.83319"
         y="841.33514"
         style="font-style:normal;font-variant:normal;font-weight:normal;font-stretch:normal;font-family:FreeSerif;-inkscape-font-specification:FreeSerif">T</tspan></text>
  </g>
</svg>
